# xmcd
#
# Track frame offsets:
#	150
#	16672
#	31685
#	49232
#	75478
#	94017
#	112947
#	133255
#	134275
#	161857
#	178630
#	193544
#	209962
#
# Disc length: 3209 seconds
# Revision: 0
# Processed by: cddbd v1.5.2PL0 Copyright (c) Steve Scherf et al.
# Submitted via: dBpowerAMP V12.0
#
DISCID=ac0c870d
DTITLE=Microwave Dave and The Nukes - Last Time I Saw You
DYEAR=2011
DGENRE=Blues Rock
TTITLE0=Drinkin' Wine Since Nine
TTITLE1=Jesus Was Smart
TTITLE2=I've Got A Bet With Myself
TTITLE3=The Worst Thing
TTITLE4=Tire Man
TTITLE5=Alabama Saturday Night
TTITLE6=Last Time I Saw You
TTITLE7=Hydraulic Grind
TTITLE8=All Night Boogie
TTITLE9=Goin' Downtown
TTITLE10=Cadillac Ride
TTITLE11=Vagabundos
TTITLE12=Rafferty
EXTD=
EXTT0=
EXTT1=
EXTT2=
EXTT3=
EXTT4=
EXTT5=
EXTT6=
EXTT7=
EXTT8=
EXTT9=
EXTT10=
EXTT11=
EXTT12=
PLAYORDER=
